<svg version="1.1" xmlns="http://www.w3.org/2000/svg" width="20" height="20"><rect id="backgroundrect" width="100%" height="100%" x="0" y="0" fill="none" stroke="none"/>
<title>envelope</title>

<g class="currentLayer" style=""><title>Layer 1</title><path d="M18 2c1.105 0 2 0.895 2 2v0 12c0 1.105-0.895 2-2 2v0h-16c-1.105 0-2-0.895-2-2v0-12c0-1.1 0.9-2 2-2h16zM13.63 11.1l6.37 4.9v-2l-5.12-3.9 5.12-4.1v-2l-10 8-10-8v2l5.12 4.1-5.12 3.9v2l6.37-4.9 3.63 2.9 3.63-2.9z" id="svg_1" class="selected" fill-opacity="1" fill="#505575"/></g></svg>